<svg xmlns="http://www.w3.org/2000/svg" width="505" height="730" fill="none">
  <g clip-path="url(#a)">
    <path fill="#00558C" stroke="#00558C" stroke-miterlimit="10" stroke-width="1.971" d="M232.636 169.597c-1.143 4.692-2.287 9.58-1.498 14.351.788 4.77 3.351 8.949 5.046 13.325.946 2.484 1.656 5.007 1.577 7.727-.197 6.269-4.415 11.315-6.505 17.111-4.258 11.985.946 25.586-.276 38.399-.276 3.075-1.064 6.268-3.075 8.279-.473.473-.985.828-1.537 1.143-2.09 1.183-4.692 1.301-7.097 1.38-17.465.552-46.481 2.957-45.377 23.063.355 6.584.552 17.702 5.164 22.472 1.932 2.011 4.337 3.706 5.323 6.505.552 1.617.552 3.43.867 5.125.473 2.484 1.616 4.771 2.72 6.978a11296.908 11296.908 0 0 1 15.455 30.397c3.075 6.032 1.025 8.397-2.76 9.264-4.297.986-10.802 0-14.548.158-12.261.552-24.561-2.405-36.822-3.864l-.039-.709c-1.38-20.461-20.974-32.013-38.281-36.862-17.387-4.849-37.06-8.2-48.059-24.443-7.49-11.078-10.408-27.479-21.604-33.116-2.484-1.262-5.323-1.893-7.373-3.982-3.587-3.667-3.311-10.448-.867-15.218s6.387-8.082 9.935-11.788c13.838-14.39 21.644-36.113 20.777-57.52 2.444-2.247 6.071.591 7.49 3.824 1.459 3.233 2.13 7.215 4.77 9.186 4.377 3.272 10.448-2.444 10.685-8.476.236-6.032-3.115-11.354-6.308-16.164-3.194-4.81-6.505-10.172-6.23-16.164.71-15.179 20.225-16.637 29.411-27.597 5.796-6.939 7.294-17.978 13.917-23.813 13.444-11.827 16.992 2.681 26.335 8.516 3.667 2.287 7.806 3.154 11.907 3.982 6.505-18.175 19.002-25.429 29.883-37.69 5.796 8.595 11.985 16.835 19.2 23.773 9.817 9.423 21.604 12.064 31.894 19.988 4.14 3.194 7.53 8.753 6.505 14.351-1.695 9.067-8.239 18.332-10.605 28.109Z"/>
    <path fill="#fff" d="M97.364 244.579h-3.178v-9.376h3.242c.93 0 1.73.188 2.398.563a3.766 3.766 0 0 1 1.548 1.607c.36.699.54 1.535.54 2.509 0 .976-.182 1.816-.545 2.518-.36.702-.88 1.24-1.561 1.616-.678.375-1.492.563-2.445.563Zm-1.48-1.47h1.397c.653 0 1.198-.119 1.634-.357.437-.241.765-.6.985-1.076.219-.479.329-1.077.329-1.794 0-.717-.11-1.312-.33-1.785a2.244 2.244 0 0 0-.975-1.067c-.427-.238-.958-.357-1.593-.357h-1.446v6.436Zm13.554-7.906h1.698v6.125c0 .672-.159 1.262-.476 1.772a3.22 3.22 0 0 1-1.328 1.195c-.57.284-1.237.426-2 .426-.766 0-1.435-.142-2.005-.426a3.213 3.213 0 0 1-1.328-1.195c-.314-.51-.471-1.1-.471-1.772v-6.125h1.698v5.984c0 .39.085.738.256 1.043.174.305.418.545.733.719.314.171.686.256 1.117.256.43 0 .802-.085 1.117-.256a1.83 1.83 0 0 0 .732-.719c.171-.305.257-.653.257-1.043v-5.984Zm3.544 9.376v-9.376h1.698v4.308h.115l3.657-4.308h2.074l-3.625 4.207 3.657 5.169h-2.041l-2.798-4.02-1.039 1.227v2.793h-1.698Zm8.724 0v-9.376h1.699v4.308h.114l3.658-4.308h2.073l-3.625 4.207 3.657 5.169h-2.041l-2.797-4.02-1.039 1.227v2.793h-1.699Zm14.634-9.376h1.699v6.125c0 .672-.159 1.262-.476 1.772a3.22 3.22 0 0 1-1.328 1.195c-.571.284-1.237.426-2 .426-.766 0-1.435-.142-2.006-.426a3.216 3.216 0 0 1-1.327-1.195c-.314-.51-.472-1.1-.472-1.772v-6.125h1.699v5.984c0 .39.085.738.256 1.043.174.305.418.545.733.719.314.171.686.256 1.117.256.43 0 .802-.085 1.117-.256a1.83 1.83 0 0 0 .732-.719c.171-.305.256-.653.256-1.043v-5.984Z"/>
    <path fill="#241F61" stroke="#241F61" stroke-width=".787" d="m305.432 220.993-.002.001c-3.776 1.449-7.871.853-11.939.26l-.044-.006h-.001l-19.749-2.957c-4.147-.632-8.24-1.257-12.132-2.853-4.627-1.925-8.715-5.188-12.759-8.671a371.637 371.637 0 0 1-1.944-1.687c-3.347-2.916-6.717-5.854-10.359-8.112-.534-1.365-1.158-2.726-1.78-4.08-.359-.783-.717-1.564-1.056-2.341-.952-2.183-1.774-4.385-2.14-6.7-.735-4.642.346-9.496 1.491-14.196l.001-.001c1.132-4.679 3.231-9.236 5.313-13.756l.22-.478c2.145-4.659 4.237-9.285 5.115-13.894 1.103-5.798-2.406-11.492-6.652-14.737-4.528-3.487-9.346-5.959-14.125-8.41-.687-.352-1.373-.704-2.058-1.059-5.455-2.826-10.813-5.821-15.678-10.49l-.001-.001C198 99.983 191.879 91.863 186.178 83.37a78.042 78.042 0 0 0 5.305-6.706h.001c4-5.706 6.814-12.172 9.597-18.565l.101-.231c2.821-6.481 5.624-12.877 9.616-18.416l.001-.001.041-.056c1.418-1.93 2.819-3.837 4.648-4.92 2.534-1.471 5.281-1.193 8.074-.05 2.802 1.147 5.583 3.138 8.133 4.996l.002.001c13.937 10.017 29.898 15.643 46.34 16.317h.001c.586.022 1.173.04 1.758.056 3.555.104 7.083.206 10.33 1.531 3.669 1.499 6.623 4.372 9.179 7.885 2.556 3.515 4.691 7.637 6.744 11.604l.001.002a386.512 386.512 0 0 0 19.397 33.058c-2.019 3.297-3.152 7.368-4.271 11.392-.141.51-.283 1.019-.426 1.525-1.308 4.63-2.748 9.068-5.617 12.283l-.001.002c-.884.999-1.888 1.86-2.933 2.698-.296.238-.597.475-.899.713-.755.596-1.52 1.198-2.244 1.837l-.003.003c-5.008 4.521-5.772 10.634-4.996 16.923.388 3.145 1.162 6.354 1.996 9.456.271 1.006.547 1.999.818 2.975.569 2.045 1.117 4.016 1.549 5.878 1.163 5.063 3.353 15.372 3.756 24.972.201 4.803-.047 9.4-1.079 13.064-1.033 3.668-2.827 6.327-5.665 7.397Z"/>
    <path fill="#545EA9" stroke="#545EA9" stroke-miterlimit="10" stroke-width=".788" d="M370.348 192.542c-1.893 31.697-4.337 63.395-6.505 95.092-2.287.197-4.652.158-6.348.118a1163.02 1163.02 0 0 1-68.322-2.838c-8.516-.592-17.504-1.499-24.443-7.136-4.297-3.509-7.767-8.713-12.813-10.172-4.967-1.419-10.014 1.104-14.942 2.602-3.39.986-7.372 1.301-10.487-.236.552-.316 1.065-.671 1.538-1.144 2.01-2.01 2.799-5.243 3.075-8.279 1.222-12.852-3.982-26.453.276-38.399 2.089-5.795 6.308-10.842 6.505-17.11.079-2.72-.591-5.244-1.577-7.727 8.713 5.361 15.849 14.666 25.232 18.569 3.903 1.616 8.081 2.247 12.221 2.878l19.752 2.956c4.06.592 8.279 1.183 12.182-.276 12.024-4.573 5.598-35.797 3.233-45.89-2.524-11.038-9.226-26.059.551-34.851 2.011-1.813 4.298-3.232 6.111-5.283 5.874-6.583 5.835-18.095 10.487-25.468a341.266 341.266 0 0 0 11.473 16.48c15.178 20.776 34.535 37.059 32.801 66.114Z"/>
    <path fill="#fff" d="M256.841 252.494v-9.376h6.006v1.424h-4.308v2.545h3.896v1.424h-3.896v3.983h-1.698Zm13.463-9.376h1.699v6.126c0 .671-.159 1.261-.477 1.771a3.21 3.21 0 0 1-1.327 1.195c-.571.284-1.238.426-2.001.426-.766 0-1.434-.142-2.005-.426a3.216 3.216 0 0 1-1.327-1.195c-.315-.51-.472-1.1-.472-1.771v-6.126h1.699v5.984c0 .39.085.738.256 1.043.174.306.418.545.732.719.315.171.687.256 1.117.256.431 0 .803-.085 1.117-.256a1.82 1.82 0 0 0 .733-.719c.171-.305.256-.653.256-1.043v-5.984Zm11.249 0v9.376h-1.511l-4.417-6.386h-.078v6.386h-1.698v-9.376h1.519l4.413 6.391h.083v-6.391h1.689Zm3.055 9.376h-1.813l3.3-9.376h2.097l3.305 9.376h-1.813l-2.504-7.453h-.073l-2.499 7.453Zm.059-3.676h4.944v1.364h-4.944v-1.364Zm8.065 3.676v-9.376h1.699v4.308h.114l3.658-4.308h2.073l-3.625 4.207 3.658 5.169h-2.042l-2.797-4.02-1.039 1.227v2.793h-1.699Zm9.928 0h-1.812l3.3-9.376h2.097l3.305 9.376h-1.813l-2.504-7.453h-.073l-2.5 7.453Zm.06-3.676h4.944v1.364h-4.944v-1.364Zm6.467-5.7h1.918l2.294 4.148h.091l2.294-4.148h1.918l-3.41 5.878v3.498h-1.694v-3.498l-3.411-5.878Zm9.718 9.376v-9.376h6.098v1.424h-4.4v2.545h4.084v1.424h-4.084v2.559h4.436v1.424h-6.134Z"/>
    <path fill="#F05C6D" stroke="#F05C6D" stroke-miterlimit="10" stroke-width="1.577" d="m370.838 304.333.385-1.638-1.505.752c-.475.238-.955.395-1.483.43-1.067-.012-1.881-.845-2.421-2.502-.53-1.625-.669-3.733-.555-5.526.197-2.755.394-5.471.59-8.187l.001-.011.067-.922-.921.08c-1.763.152-3.542.136-5.083.122-.416-.003-.815-.007-1.192-.007-22.77-.276-45.54-1.221-68.271-2.836h-.001c-8.5-.593-17.241-1.501-24.001-6.962-1.342-1.094-2.573-2.337-3.836-3.612a95.765 95.765 0 0 0-2.215-2.188c-2.056-1.947-4.309-3.733-7.041-4.517-2.657-.765-5.319-.455-7.884.201-1.284.328-2.56.748-3.809 1.174l-.759.26c-.993.341-1.967.675-2.936.97-3.296.996-7.09 1.185-9.913-.191l-.369-.179-.359.199c-1.937 1.076-4.305 1.201-6.739 1.281-8.732.276-20.46 1.015-29.882 4.241-4.715 1.614-8.92 3.872-11.88 7.066-2.982 3.217-4.665 7.346-4.378 12.587.025.451.048.925.073 1.419.155 3.081.347 6.916.937 10.58.678 4.219 1.908 8.404 4.373 10.976l.006.006c.45.459.919.901 1.375 1.331l.172.162c.514.485 1.01.958 1.472 1.451.921.983 1.679 2.013 2.122 3.268.248.727.378 1.518.485 2.372.027.219.053.446.08.676.074.641.151 1.313.271 1.958.458 2.617 1.657 5.002 2.794 7.198a10998.943 10998.943 0 0 0 15.45 30.387l.004.008.703-.358-.703.358c1.508 2.958 1.632 4.785 1.166 5.909-.453 1.096-1.591 1.815-3.399 2.229l-1.252.287.822.986c2.203 2.644 4.927 4.002 7.963 4.853 2.127.596 4.468.955 6.902 1.329.985.151 1.985.305 2.992.477.254.044.538.091.847.143 2.794.468 7.692 1.287 11.683 3.054 2.218.981 4.053 2.212 5.106 3.746 1.018 1.482 1.359 3.323.449 5.72l-.189.497.39.361c3.007 2.786 7.757 2.524 11.357 1.272.925-.314 1.852-.675 2.762-1.029l.497-.193c1.077-.417 2.13-.814 3.176-1.124 1.919-.57 3.746-.829 5.528-.416.599 3.911 2.924 7.316 6.202 8.914l.61.297.385-.559c1.543-2.24 3.8-3.682 6.205-4.042.867-.122 1.749-.098 2.708-.071l.587.014c1.156.025 2.409.011 3.642-.363l.011-.004c1.722-.552 3.114-1.697 4.322-2.986.838-.895 1.632-1.912 2.393-2.886.323-.412.639-.818.95-1.202 6.294-7.714 14.937-11.865 23.66-16.055 1.742-.837 3.487-1.675 5.217-2.543v-.001c11.417-5.747 22.351-13.216 31.189-23.367 10.748-12.341 17.931-28.237 21.895-45.124Z"/>
    <path fill="#fff" d="M239.345 339.69v-9.375h1.698v4.308h.114l3.658-4.308h2.074l-3.626 4.207 3.658 5.168h-2.042l-2.797-4.019-1.039 1.227v2.792h-1.698Zm10.697 0-2.646-9.375h1.826l1.69 6.89h.087l1.803-6.89h1.662l1.808 6.894h.083l1.689-6.894h1.827l-2.646 9.375h-1.676l-1.877-6.578h-.073l-1.882 6.578h-1.675Zm11.329 0h-1.813l3.301-9.375h2.096l3.306 9.375h-1.813l-2.504-7.452h-.074l-2.499 7.452Zm.059-3.676h4.945v1.364h-4.945v-1.364Zm8.065-5.699h2.079l2.783 6.793h.11l2.783-6.793h2.079v9.375h-1.63v-6.441h-.087l-2.591 6.414h-1.218l-2.591-6.427h-.087v6.454h-1.63v-9.375Zm13.382 0v9.375h-1.699v-9.375h1.699Z"/>
    <path fill="#C94097" stroke="#C94097" stroke-miterlimit="10" stroke-width="1.577" d="M369.124 516.847c-3.075 6.15-4.574 13.167-4.337 20.264-15.139 2.207-28.464-19.594-44.234-17.387-6.584.907-12.419 6.032-19.042 6.427-2.05.079-4.1-.158-6.111-.789-8.634-2.484-17.031-9.738-25.31-6.308-4.219 1.774-7.294 5.993-11.157 8.595-9.502 6.426-23.064 2.838-31.027 11.63-8.082 8.989-5.52 25.705-13.247 35.127-4.376 5.322-11.039 7.018-17.307 8.476l-11.67 2.681c-.236-7.057-1.025-13.956-3.154-20.54-5.48-16.716-18.845-28.031-31.539-38.32l-42.381-34.497c-3.746-3.035-7.964-8.239-5.677-12.813 1.616-3.154 5.361-3.587 8.515-3.627l28.07-.552c4.889-14.587 9.817-29.174 14.706-43.8 1.182-3.548 2.405-7.372 1.537-11.039-.867-3.666-3.706-6.347-5.519-9.619-6.229-11.276.946-25.902.355-39.267 12.261 1.459 24.561 4.376 36.822 3.864 3.745-.158 10.29.828 14.548-.158 4.139 4.967 10.289 5.165 17.386 6.387 4.967.828 22.629 3.193 18.687 13.719l-.197.473c-.828 1.972-2.208 3.627-2.721 5.717-2.878 11.354 12.656 24.049 20.107 27.282-1.419-3.627 2.523-8.122 5.637-6.624.04.04.119.04.158.079-1.143-.631 2.129 15.809 3.194 17.544 2.286 3.785 6.781 6.347 9.856 9.422l25.271 25.429c2.917 2.957 5.913 6.032 7.451 10.132.749 2.09 1.104 4.337 2.129 6.269 2.326 4.494 10.96 8.082 15.06 8.949 6.505 1.34 13.049-1.025 19.633-1.695 11-1.065 21.959 2.681 30.672 10.447-1.971 2.405-3.706 5.165-5.164 8.122Z"/>
    <path fill="#fff" d="M191.746 483.454h-1.813l3.301-9.375h2.096l3.306 9.375h-1.813l-2.504-7.452h-.074l-2.499 7.452Zm.059-3.676h4.944v1.365h-4.944v-1.365Zm8.065 3.676v-9.375h1.699v4.308h.114l3.658-4.308h2.074l-3.626 4.207 3.658 5.168h-2.042l-2.797-4.019-1.039 1.227v2.792h-1.699Zm8.725 0v-9.375h1.698v4.308h.114l3.658-4.308h2.074l-3.626 4.207 3.658 5.168h-2.042l-2.797-4.019-1.039 1.227v2.792h-1.698Zm16.598-4.687c0 1.01-.189 1.875-.568 2.595-.375.717-.888 1.267-1.538 1.648-.647.382-1.381.573-2.202.573s-1.556-.191-2.207-.573c-.647-.384-1.159-.935-1.538-1.652-.375-.721-.563-1.584-.563-2.591 0-1.011.188-1.874.563-2.591.379-.721.891-1.272 1.538-1.653.651-.382 1.386-.572 2.207-.572s1.555.19 2.202.572c.65.381 1.163.932 1.538 1.653.379.717.568 1.58.568 2.591Zm-1.708 0c0-.711-.111-1.311-.334-1.799-.22-.492-.525-.863-.916-1.113-.39-.253-.84-.38-1.35-.38-.51 0-.96.127-1.35.38-.391.25-.698.621-.921 1.113-.219.488-.329 1.088-.329 1.799 0 .711.11 1.312.329 1.803.223.489.53.859.921 1.113.39.25.84.375 1.35.375.51 0 .96-.125 1.35-.375.391-.254.696-.624.916-1.113.223-.491.334-1.092.334-1.803Z"/>
    <path fill="#2563EB" d="M470.483 503.206c-4.376-2.602-8.713-5.165-13.05-7.767-9.225-5.48-18.765-11.078-29.095-12.419-12.024-1.537-24.088 2.957-34.851 9.344-7.057 4.218-13.838 9.462-19.121 16.203-8.752-7.766-19.672-11.472-30.672-10.408-6.584.671-13.167 3.036-19.633 1.696-4.14-.868-12.734-4.455-15.06-8.95-.986-1.931-1.341-4.218-2.129-6.268-1.498-4.1-4.534-7.175-7.451-10.132l-25.271-25.429c-3.036-3.075-7.53-5.638-9.856-9.422-1.065-1.735-4.337-18.135-3.194-17.544-.039-.04-.118-.04-.157-.079.039-.079.079-.197.118-.276.118-.197.276-.315.394-.512.237-.395.197-1.144.276-1.577.079-.434.158-.947.237-1.42.157-.985.315-1.931.512-2.917.868-4.297 2.326-9.344 4.928-12.852 1.695-2.405 4.1-3.982 6.742-4.377 2.286-.315 4.652.276 6.82-.394 3.075-.946 5.125-4.139 7.294-6.82 7.687-9.423 18.845-13.602 29.134-18.806 11.315-5.716 22.157-13.128 30.948-23.181 10.645-12.222 17.781-27.991 21.723-44.786l.71-.355c9.304-5.046 18.608-10.132 27.912-15.178.946-2.681 4.219.512 4.849 3.311 3.47 16.48 4.337 33.669 3.194 50.582-.789 11.866-2.72 23.93-8.161 34.062-5.441 10.093-15.1 17.82-25.429 17.308-1.616 8.318 2.76 16.518 6.9 23.575 6.307 10.724 12.931 21.802 22.669 28.189 9.146 6.032 20.067 7.214 30.001 11.354 17.899 7.451 31.895 25.389 37.769 46.245Z"/>
    <path fill="#fff" d="M296.255 452.901h1.918l2.293 4.147h.092l2.293-4.147h1.918l-3.41 5.878v3.497h-1.694v-3.497l-3.41-5.878Zm9.964 9.375h-1.812l3.3-9.375h2.097l3.305 9.375h-1.813l-2.504-7.453h-.073l-2.5 7.453Zm.06-3.676h4.944v1.364h-4.944V458.6Zm8.065-5.699h2.078l2.784 6.793h.109l2.784-6.793h2.078v9.375h-1.63v-6.441h-.087l-2.591 6.414h-1.217l-2.591-6.428h-.087v6.455h-1.63v-9.375Zm12.887 9.375h-1.813l3.3-9.375h2.097l3.305 9.375h-1.813l-2.504-7.453h-.073l-2.499 7.453Zm.059-3.676h4.944v1.364h-4.944V458.6Zm8.065 3.676v-9.375h1.698v7.951h4.13v1.424h-5.828Zm5.694-7.952v-1.423h7.48v1.423h-2.898v7.952h-1.684v-7.952h-2.898Zm14.832-1.423h1.698v6.125c0 .671-.158 1.262-.476 1.771-.314.51-.757.908-1.327 1.195-.571.284-1.238.426-2.001.426-.766 0-1.434-.142-2.005-.426a3.22 3.22 0 0 1-1.328-1.195c-.314-.509-.471-1.1-.471-1.771v-6.125h1.698v5.983c0 .39.086.738.257 1.044.174.305.418.544.732.718.314.171.687.257 1.117.257.43 0 .803-.086 1.117-.257.318-.174.562-.413.733-.718.17-.306.256-.654.256-1.044v-5.983Zm6.568-.44-3.021 11.225h-1.452l3.022-11.225h1.451Zm4.308 9.815h-3.177v-9.375h3.241c.931 0 1.73.187 2.399.563a3.766 3.766 0 0 1 1.547 1.606c.36.699.54 1.536.54 2.509 0 .977-.181 1.816-.545 2.518a3.76 3.76 0 0 1-1.561 1.616c-.677.375-1.492.563-2.444.563Zm-1.479-1.469h1.396c.653 0 1.198-.12 1.635-.358.436-.241.764-.599.984-1.075.22-.479.329-1.078.329-1.795 0-.717-.109-1.312-.329-1.785a2.251 2.251 0 0 0-.975-1.067c-.427-.238-.958-.357-1.593-.357h-1.447v6.437Zm7.643 1.469v-9.375h6.098v1.423h-4.4v2.546h4.084v1.423h-4.084v2.559h4.436v1.424h-6.134Zm7.83 0v-9.375h3.589c.678 0 1.241.106 1.689.32.452.211.789.499 1.012.865.226.366.339.782.339 1.245 0 .382-.073.708-.22.98a1.843 1.843 0 0 1-.59.655 2.5 2.5 0 0 1-.829.361v.092c.333.018.652.12.957.307.308.183.56.442.755.778.196.336.293.741.293 1.218 0 .485-.117.921-.352 1.309-.235.384-.589.688-1.062.911-.473.223-1.069.334-1.786.334h-3.795Zm1.699-1.419h1.826c.617 0 1.061-.118 1.332-.353.275-.238.412-.543.412-.915a1.397 1.397 0 0 0-.792-1.282 1.948 1.948 0 0 0-.906-.197h-1.872v2.747Zm0-3.969h1.68c.293 0 .557-.054.792-.16.235-.11.419-.264.554-.463.137-.201.206-.439.206-.714 0-.363-.129-.662-.385-.897-.253-.235-.63-.353-1.131-.353h-1.716v2.587Zm7.978 5.388h-1.813l3.3-9.375h2.097l3.305 9.375h-1.813L393 454.823h-.073l-2.499 7.453Zm.059-3.676h4.944v1.364h-4.944V458.6Z"/>
    <path fill="#1A399D" stroke="#1E40AF" stroke-miterlimit="10" stroke-width=".788" d="M295.44 525.323c-2.444 6.308-11.196 10.369-14.469 17.228a11.498 11.498 0 0 0-.946 2.681c-1.222 5.48 1.538 11.157 1.143 16.795-.354 4.928-3.035 9.107-4.612 13.72-2.602 7.569-2.011 16.085-3.864 23.93-2.957 12.537-12.024 22.275-22.353 27.44-10.33 5.164-21.841 6.308-33.117 6.11-5.835-.078-11.985-.63-16.755-4.494-1.853-1.498-3.469-3.469-5.362-4.849-2.681-1.932-5.716-2.563-8.91-2.642-.315-4.573-.512-9.146-.512-13.759-.04-7.293.315-14.744.079-22.038l11.669-2.681c6.229-1.419 12.931-3.114 17.308-8.476 7.727-9.422 5.164-26.138 13.246-35.127 7.924-8.792 21.486-5.165 31.027-11.63 3.903-2.642 6.939-6.86 11.157-8.595 8.279-3.351 16.598 3.903 25.271 6.387Z"/>
    <path fill="#fff" d="M202.054 606.381v-9.375h3.589c.677 0 1.24.107 1.689.32.452.211.789.499 1.012.866.225.366.338.781.338 1.245 0 .381-.073.708-.219.979a1.855 1.855 0 0 1-.591.655 2.505 2.505 0 0 1-.829.362v.091c.333.019.652.121.957.307.308.183.56.442.756.778.195.336.293.742.293 1.218 0 .485-.118.922-.353 1.309-.235.385-.589.688-1.062.911-.473.223-1.068.334-1.785.334h-3.795Zm1.698-1.419h1.827c.616 0 1.06-.117 1.332-.352a1.16 1.16 0 0 0 .412-.916 1.405 1.405 0 0 0-.792-1.282 1.955 1.955 0 0 0-.907-.196h-1.872v2.746Zm0-3.969h1.68c.293 0 .557-.053.792-.16.235-.11.42-.264.554-.462.137-.202.206-.44.206-.715 0-.363-.128-.662-.385-.897-.253-.235-.63-.352-1.13-.352h-1.717v2.586Zm8.472-3.987v9.375h-1.698v-9.375h1.698Zm1.84 9.375v-9.375h1.698v7.952h4.129v1.423h-5.827Zm7.301 0v-9.375h1.699v7.952h4.129v1.423h-5.828Zm9-9.375v9.375h-1.698v-9.375h1.698Zm1.839 9.375v-9.375h3.516c.72 0 1.325.125 1.813.375.491.251.862.602 1.112 1.053.254.449.38.972.38 1.57 0 .602-.128 1.124-.384 1.566-.253.44-.627.78-1.122 1.021-.494.238-1.101.357-1.822.357h-2.504v-1.41h2.275c.422 0 .766-.058 1.035-.174.269-.119.467-.291.595-.517.131-.229.197-.51.197-.843 0-.332-.066-.616-.197-.851a1.25 1.25 0 0 0-.6-.54c-.268-.125-.614-.188-1.039-.188h-1.556v7.956h-1.699Zm4.844-4.248 2.321 4.248h-1.895l-2.28-4.248h1.854Zm5.239-5.127v9.375h-1.698v-9.375h1.698Z"/>
    <path fill="#F07CB0" stroke="#F07CB0" stroke-miterlimit="10" stroke-width="1.183" d="m474.624 591.95-42.381 37.69c-16.085 14.271-33.274 29.095-53.42 31.657-8.87 1.104-18.017-.197-26.611 2.563-12.419 3.982-10.487 12.103-15.178 21.723-3.746 7.648-9.581 10.013-16.638 10.526 2.011-17.899 6.308-35.324 12.735-51.804.63-1.616 1.261-3.193 1.931-4.809 1.577-3.706 3.391-7.53 6.545-9.502 3.903-2.404 8.594-1.34 12.97-1.182 12.813.433 25.508-8.595 30.909-22.039 5.401-13.404 3.233-30.435-5.322-41.434-3.47-4.495-7.846-7.964-10.881-12.853-2.76-4.534-4.298-9.935-4.455-15.454.788-.118 1.577-.276 2.326-.552-1.814-9.817 1.616-20.619 8.437-26.809a32.782 32.782 0 0 0-1.223-1.143c5.283-6.741 12.064-11.985 19.121-16.203 10.763-6.427 22.827-10.881 34.851-9.344 10.329 1.301 19.87 6.899 29.095 12.419 4.337 2.602 8.713 5.164 13.05 7.766 2.681 9.304 3.588 19.2 2.641 28.938-.867 8.791-3.193 17.347-3.903 26.178-.906 11.59.946 23.26 5.401 33.668Z"/>
    <path fill="#fff" d="M385.227 539.78v-9.376h3.589c.678 0 1.241.107 1.69.321.451.21.789.499 1.011.865.226.366.339.781.339 1.245 0 .382-.073.708-.22.98a1.84 1.84 0 0 1-.59.654 2.494 2.494 0 0 1-.829.362v.092c.333.018.652.12.957.306.308.183.56.443.755.779.196.335.293.741.293 1.217 0 .485-.117.922-.352 1.309-.235.385-.589.689-1.062.911-.473.223-1.068.335-1.786.335h-3.795Zm1.699-1.419h1.826c.617 0 1.061-.118 1.333-.353.274-.238.412-.543.412-.916a1.402 1.402 0 0 0-.792-1.281c-.254-.132-.556-.197-.907-.197h-1.872v2.747Zm0-3.969h1.68c.293 0 .557-.054.792-.161.235-.11.42-.264.554-.462a1.24 1.24 0 0 0 .206-.714c0-.363-.128-.662-.385-.897-.253-.235-.63-.353-1.13-.353h-1.717v2.587Zm7.978 5.388h-1.813l3.301-9.376h2.096l3.306 9.376h-1.813l-2.504-7.453h-.074l-2.499 7.453Zm.059-3.676h4.944v1.364h-4.944v-1.364Zm8.065 3.676v-9.376h1.699v7.952h4.129v1.424h-5.828Zm8.859 0h-1.813l3.3-9.376h2.097l3.305 9.376h-1.813l-2.504-7.453h-.073l-2.499 7.453Zm.059-3.676h4.944v1.364h-4.944v-1.364Zm15.77-5.7v9.376h-1.511l-4.418-6.386h-.078v6.386h-1.698v-9.376h1.52l4.413 6.391h.082v-6.391h1.69Zm8.131 2.994a2.44 2.44 0 0 0-.316-.664 2.057 2.057 0 0 0-.476-.508 1.944 1.944 0 0 0-.632-.316 2.64 2.64 0 0 0-.778-.11c-.504 0-.952.127-1.346.38-.394.254-.703.626-.929 1.117-.223.489-.334 1.084-.334 1.786 0 .708.111 1.308.334 1.799.223.491.532.865.929 1.121.397.254.858.38 1.383.38.476 0 .888-.091 1.236-.274.351-.183.621-.443.81-.778.189-.339.284-.736.284-1.191l.384.06h-2.545v-1.328h3.804v1.126c0 .803-.171 1.497-.513 2.083a3.494 3.494 0 0 1-1.409 1.355c-.599.315-1.285.472-2.061.472-.863 0-1.622-.194-2.275-.582-.65-.39-1.158-.944-1.524-1.661-.363-.721-.545-1.575-.545-2.564 0-.757.107-1.433.321-2.028a4.37 4.37 0 0 1 .906-1.515 3.851 3.851 0 0 1 1.364-.952c.522-.22 1.09-.33 1.703-.33.519 0 1.003.076 1.451.229.449.149.847.363 1.195.641.351.278.64.607.865.989.226.381.374.802.444 1.263h-1.73Zm4.365 6.382h-1.813l3.301-9.376h2.096l3.306 9.376h-1.813l-2.504-7.453h-.074l-2.499 7.453Zm.059-3.676h4.945v1.364h-4.945v-1.364Z"/>
    <path fill="#B21F8D" stroke="#B21F8D" stroke-miterlimit="10" stroke-width="1.183" d="M333.092 644.344c-6.386 16.44-10.684 33.905-12.694 51.765-2.523.197-5.638 1.813-7.925.039-34.851-26.69-56.1-2.208-84.171-3.312-3.981-.157-8.16-.354-11.63-2.641-8.437-5.48-17.346-9.501-20.973-20.54-5.126-15.533-8.319-31.816-9.502-48.374 3.154.04 6.229.71 8.91 2.642 1.932 1.379 3.509 3.351 5.362 4.849 4.77 3.863 10.92 4.415 16.755 4.494 11.236.158 22.787-.946 33.117-6.111 10.329-5.164 19.357-14.941 22.353-27.439 1.853-7.845 1.301-16.361 3.864-23.93 1.577-4.574 4.258-8.792 4.612-13.72.434-5.638-2.365-11.315-1.143-16.795.197-.946.552-1.853.946-2.681l5.953 13.641c3.943 9.068 8.004 19.042 6.111 28.937-.591 3.036-1.734 6.032-1.301 9.108.434 3.075 2.287 5.558 4.061 7.884l7.569 9.778c.828 1.103 1.696 2.207 2.169 3.587.512 1.498.512 3.194.828 4.771 2.523 13.167 22.353 11.866 26.729 24.048Z"/>
    <path fill="#fff" d="M224.182 653.541a1.25 1.25 0 0 0-.54-.934c-.315-.223-.724-.335-1.227-.335-.354 0-.658.054-.911.161a1.342 1.342 0 0 0-.581.435 1.052 1.052 0 0 0-.206.627c0 .195.044.364.132.508.092.143.215.265.371.366a2.6 2.6 0 0 0 .517.247c.19.067.38.124.573.17l.879.219a6.03 6.03 0 0 1 1.02.335c.33.14.625.317.884.531.262.213.47.471.623.773.152.302.228.656.228 1.062 0 .55-.14 1.033-.421 1.452-.28.415-.686.74-1.217.975-.528.232-1.168.348-1.919.348-.729 0-1.362-.113-1.899-.339-.534-.226-.953-.556-1.255-.989-.299-.433-.461-.961-.485-1.584h1.671c.024.327.125.598.302.815.177.217.408.378.691.485.287.107.608.16.962.16.369 0 .693-.055.97-.164.281-.113.501-.269.659-.467.159-.202.24-.437.243-.705a.899.899 0 0 0-.215-.605 1.568 1.568 0 0 0-.591-.402 5.61 5.61 0 0 0-.879-.293l-1.066-.275c-.772-.199-1.383-.499-1.831-.902-.446-.406-.669-.945-.669-1.616 0-.552.15-1.036.449-1.451a2.969 2.969 0 0 1 1.231-.966c.519-.232 1.107-.348 1.763-.348.665 0 1.248.116 1.749.348.503.229.898.548 1.185.957.287.406.435.873.444 1.401h-1.634Zm3.277 6.798v-9.376h1.698v3.969h4.344v-3.969h1.703v9.376h-1.703v-3.983h-4.344v3.983h-1.698Zm17.97-4.688c0 1.01-.189 1.875-.568 2.596-.375.717-.888 1.266-1.538 1.648-.647.381-1.381.572-2.202.572s-1.556-.191-2.206-.572c-.647-.385-1.16-.936-1.539-1.653-.375-.72-.563-1.584-.563-2.591 0-1.01.188-1.874.563-2.591.379-.72.892-1.271 1.539-1.653.65-.381 1.385-.572 2.206-.572s1.555.191 2.202.572c.65.382 1.163.933 1.538 1.653.379.717.568 1.581.568 2.591Zm-1.708 0c0-.711-.111-1.311-.334-1.799-.22-.492-.525-.862-.915-1.113a2.431 2.431 0 0 0-1.351-.38c-.51 0-.96.127-1.35.38-.391.251-.698.621-.92 1.113-.22.488-.33 1.088-.33 1.799 0 .711.11 1.312.33 1.804.222.488.529.859.92 1.112.39.25.84.375 1.35.375.51 0 .96-.125 1.351-.375.39-.253.695-.624.915-1.112.223-.492.334-1.093.334-1.804Zm3.314-4.688h2.078l2.783 6.794h.11l2.783-6.794h2.079v9.376h-1.63v-6.441h-.087l-2.591 6.413h-1.218l-2.591-6.427h-.087v6.455h-1.629v-9.376Zm17.963 2.994a2.44 2.44 0 0 0-.316-.664 2.057 2.057 0 0 0-.476-.508 1.944 1.944 0 0 0-.632-.316 2.64 2.64 0 0 0-.778-.11c-.503 0-.952.127-1.346.38-.393.254-.703.626-.929 1.117-.223.489-.334 1.084-.334 1.786 0 .708.111 1.307.334 1.799.223.491.532.865.929 1.121.397.254.858.38 1.383.38.476 0 .888-.091 1.236-.274.351-.183.621-.443.81-.779.189-.338.284-.735.284-1.19l.384.06h-2.545v-1.328h3.804v1.126c0 .803-.171 1.497-.512 2.083a3.502 3.502 0 0 1-1.41 1.355c-.599.315-1.285.472-2.06.472-.864 0-1.623-.194-2.276-.582-.65-.39-1.158-.944-1.524-1.661-.363-.721-.545-1.575-.545-2.564 0-.757.107-1.433.321-2.028a4.37 4.37 0 0 1 .906-1.515 3.851 3.851 0 0 1 1.364-.952c.522-.22 1.09-.33 1.703-.33.519 0 1.003.076 1.451.229.449.149.847.363 1.195.641.351.278.64.607.865.989.226.381.374.802.444 1.263h-1.73Zm11.828 1.694c0 1.01-.189 1.875-.568 2.596-.375.717-.888 1.266-1.538 1.648-.647.381-1.381.572-2.202.572s-1.556-.191-2.206-.572c-.647-.385-1.16-.936-1.538-1.653-.376-.72-.563-1.584-.563-2.591 0-1.01.187-1.874.563-2.591.378-.72.891-1.271 1.538-1.653.65-.381 1.385-.572 2.206-.572s1.555.191 2.202.572c.65.382 1.163.933 1.538 1.653.379.717.568 1.581.568 2.591Zm-1.708 0c0-.711-.111-1.311-.334-1.799-.219-.492-.525-.862-.915-1.113a2.431 2.431 0 0 0-1.351-.38c-.509 0-.96.127-1.35.38-.391.251-.698.621-.92 1.113-.22.488-.33 1.088-.33 1.799 0 .711.11 1.312.33 1.804.222.488.529.859.92 1.112.39.25.841.375 1.35.375.51 0 .96-.125 1.351-.375.39-.253.696-.624.915-1.112.223-.492.334-1.093.334-1.804Zm3.314-4.688h2.078l2.783 6.794h.11l2.784-6.794h2.078v9.376h-1.63v-6.441h-.087l-2.591 6.413h-1.218l-2.591-6.427h-.087v6.455h-1.629v-9.376Z"/>
    <path fill="#F37820" stroke="#F37820" stroke-width="1.183" d="m341.293 629.531-.001.001c-3.336 2.085-5.21 6.091-6.775 9.771h-.001c-.485 1.143-.95 2.306-1.408 3.47-1.22-2.505-3.109-4.402-5.302-5.972-2.342-1.676-5.065-3.001-7.722-4.295l-.755-.368c-5.862-2.863-11.15-5.719-12.348-11.993l-.001-.005c-.116-.575-.186-1.161-.26-1.773l-.074-.601c-.104-.814-.238-1.663-.515-2.472-.476-1.387-1.321-2.51-2.091-3.534l-.164-.217-.005-.007-7.567-9.774-.001-.001c-1.792-2.349-3.573-4.709-3.943-7.6-.185-1.444-.012-2.888.289-4.376.133-.66.289-1.319.448-1.99l.061-.258c.179-.756.357-1.524.498-2.299 1.93-10.101-2.219-20.241-6.15-29.282l-.001-.003-5.882-13.35c1.589-3.169 4.394-5.741 7.223-8.335l.069-.063c2.728-2.5 5.493-5.045 6.865-8.122 1.883.536 3.825.733 5.793.659l.008-.001h.008c3.436-.225 6.646-1.645 9.745-3.074l.502-.232c2.956-1.367 5.821-2.691 8.839-3.125 3.791-.521 7.463.391 11.106 2.064 3.65 1.677 7.227 4.095 10.832 6.547l.186.127c3.526 2.398 7.083 4.818 10.696 6.508 3.479 1.628 7.057 2.603 10.765 2.221.257 5.424 1.808 10.646 4.516 15.095l.004.007c1.549 2.475 3.435 4.608 5.346 6.663.359.386.719.769 1.077 1.151 1.56 1.659 3.098 3.297 4.491 5.086 8.382 10.827 10.568 27.595 5.242 40.813-5.323 13.211-17.814 22.052-30.341 21.668-.897-.033-1.804-.103-2.728-.174l-.593-.045c-1.123-.085-2.264-.159-3.394-.151-2.262.015-4.525.358-6.587 1.641Z"/>
    <path fill="#fff" d="M303.403 586.656v-9.375h1.699v4.308h.114l3.658-4.308h2.074l-3.626 4.207 3.658 5.168h-2.042l-2.797-4.019-1.039 1.227v2.792h-1.699Zm9.928 0h-1.812l3.3-9.375h2.097l3.305 9.375h-1.813l-2.504-7.452h-.073l-2.5 7.452Zm.06-3.676h4.944v1.365h-4.944v-1.365Zm8.065 3.676v-9.375h1.698v7.952h4.13v1.423h-5.828Zm5.694-7.951v-1.424h7.48v1.424h-2.898v7.951h-1.685v-7.951h-2.897Zm14.832-1.424h1.698v6.125c0 .672-.158 1.262-.476 1.772-.314.51-.757.908-1.327 1.195-.571.283-1.238.425-2.001.425-.766 0-1.434-.142-2.005-.425a3.22 3.22 0 0 1-1.328-1.195c-.314-.51-.471-1.1-.471-1.772v-6.125h1.698v5.983c0 .391.086.739.257 1.044.174.305.418.545.732.719.314.171.687.256 1.117.256.43 0 .803-.085 1.117-.256.317-.174.562-.414.733-.719.17-.305.256-.653.256-1.044v-5.983Zm11.249 0v9.375h-1.511l-4.418-6.386h-.077v6.386h-1.699v-9.375h1.52l4.413 6.391h.083v-6.391h1.689Zm8.131 2.994a2.41 2.41 0 0 0-.316-.664 2.04 2.04 0 0 0-.476-.508 1.914 1.914 0 0 0-.632-.316 2.64 2.64 0 0 0-.778-.11c-.503 0-.952.127-1.346.38-.393.254-.703.626-.929 1.117-.223.489-.334 1.084-.334 1.786 0 .708.111 1.307.334 1.799.223.491.533.865.929 1.121.397.254.858.38 1.383.38.476 0 .888-.091 1.236-.274a1.94 1.94 0 0 0 .81-.779c.189-.338.284-.735.284-1.19l.385.06h-2.546v-1.328h3.804v1.126c0 .803-.17 1.497-.512 2.083a3.502 3.502 0 0 1-1.41 1.355c-.598.315-1.285.472-2.06.472-.864 0-1.622-.194-2.275-.582-.651-.39-1.159-.944-1.525-1.661-.363-.721-.545-1.575-.545-2.564 0-.757.107-1.433.321-2.028.216-.595.519-1.1.906-1.515a3.876 3.876 0 0 1 1.364-.953 4.359 4.359 0 0 1 1.703-.329c.519 0 1.003.076 1.452.229.448.149.846.363 1.194.641.351.277.64.607.866.988.225.382.373.803.444 1.264h-1.731Zm11.828 1.694c0 1.01-.189 1.875-.567 2.595-.376.718-.889 1.267-1.539 1.648-.647.382-1.381.573-2.202.573s-1.556-.191-2.206-.573c-.647-.384-1.16-.935-1.538-1.652-.376-.72-.563-1.584-.563-2.591 0-1.01.187-1.874.563-2.591.378-.721.891-1.271 1.538-1.653.65-.381 1.385-.572 2.206-.572s1.555.191 2.202.572c.65.382 1.163.932 1.539 1.653.378.717.567 1.581.567 2.591Zm-1.707 0c0-.711-.112-1.311-.335-1.799-.219-.492-.524-.862-.915-1.113a2.431 2.431 0 0 0-1.351-.38 2.43 2.43 0 0 0-1.35.38c-.391.251-.697.621-.92 1.113-.22.488-.33 1.088-.33 1.799 0 .711.11 1.312.33 1.803.223.489.529.86.92 1.113.391.25.841.375 1.35.375.51 0 .96-.125 1.351-.375.391-.253.696-.624.915-1.113.223-.491.335-1.092.335-1.803Z"/>
    <path fill="#6B52A2" stroke="#6B52A2" stroke-width="1.183" d="M262.215 419.254c-.01.242-.02.549-.03.88l-.17-.013c-.028.17-.046.403-.061.605l-.022.265c-.031.3-.074.435-.101.476l-.008.011-.007.012a1.19 1.19 0 0 1-.135.171l-.008.009c-.039.045-.09.103-.143.173-1.753-.523-3.547.386-4.72 1.743-1.041 1.203-1.719 2.884-1.538 4.568-3.656-1.821-8.74-5.465-12.769-9.939-4.47-4.964-7.48-10.769-6.101-16.141.256-.967.707-1.848 1.22-2.762.094-.168.191-.337.289-.508.382-.671.783-1.373 1.115-2.115 1.366.983 3.031 1.452 4.734 1.564 1.979.129 4.049-.222 5.866-.855.859-.3 1.725-.638 2.584-.974l.683-.266c1.087-.422 2.161-.823 3.229-1.136 2.01-.589 3.947-.848 5.823-.362.128.832.349 1.485.663 2.056.359.651.823 1.163 1.332 1.685l.327.331c.912.921 2.034 2.054 3.343 4.227-2.539 3.632-3.995 8.611-4.842 12.803-.199.96-.359 1.956-.516 2.936l-.001.007v.004a6.469 6.469 0 0 0-.036.545Z"/>
    <path fill="#fff" d="M241.942 412.617a2.425 2.425 0 0 0-.316-.664 2.04 2.04 0 0 0-.476-.508 1.924 1.924 0 0 0-.632-.316 2.64 2.64 0 0 0-.778-.11c-.504 0-.952.127-1.346.38-.394.253-.703.626-.929 1.117-.223.488-.334 1.084-.334 1.786 0 .708.111 1.307.334 1.799.223.491.532.865.929 1.121.397.254.858.38 1.383.38.476 0 .888-.091 1.236-.274a1.94 1.94 0 0 0 .81-.779c.189-.338.284-.735.284-1.19l.384.06h-2.545v-1.328h3.804v1.126c0 .803-.171 1.497-.513 2.083a3.49 3.49 0 0 1-1.41 1.355c-.598.314-1.284.472-2.06.472-.863 0-1.622-.194-2.275-.582-.65-.39-1.158-.944-1.524-1.662-.363-.72-.545-1.574-.545-2.563 0-.757.107-1.433.32-2.028.217-.595.519-1.1.907-1.515a3.845 3.845 0 0 1 1.364-.953 4.359 4.359 0 0 1 1.703-.329c.519 0 1.003.076 1.451.229.449.149.847.363 1.195.641a3.483 3.483 0 0 1 1.309 2.252h-1.73Zm11.828 1.694c0 1.01-.189 1.875-.568 2.595-.375.718-.888 1.267-1.538 1.648-.647.382-1.381.573-2.202.573s-1.556-.191-2.206-.573c-.647-.384-1.16-.935-1.539-1.652-.375-.72-.563-1.584-.563-2.591 0-1.01.188-1.874.563-2.591.379-.721.892-1.271 1.539-1.653.65-.381 1.385-.572 2.206-.572s1.555.191 2.202.572c.65.382 1.163.932 1.538 1.653.379.717.568 1.581.568 2.591Zm-1.708 0c0-.711-.111-1.311-.334-1.799-.22-.492-.525-.863-.915-1.113a2.431 2.431 0 0 0-1.351-.38c-.51 0-.96.127-1.35.38-.391.25-.698.621-.921 1.113-.219.488-.329 1.088-.329 1.799 0 .711.11 1.312.329 1.803.223.489.53.859.921 1.113.39.25.84.375 1.35.375.51 0 .96-.125 1.351-.375.39-.254.695-.624.915-1.113.223-.491.334-1.092.334-1.803Zm3.314-4.688h2.078l2.783 6.794h.11l2.783-6.794h2.079v9.375h-1.63v-6.441h-.087l-2.591 6.414h-1.218l-2.591-6.427h-.087v6.454h-1.629v-9.375Zm11.682 9.375v-9.375h3.589c.678 0 1.241.107 1.689.32.452.211.789.499 1.012.866.226.366.339.781.339 1.245 0 .381-.073.708-.22.979a1.843 1.843 0 0 1-.59.655 2.503 2.503 0 0 1-.829.362v.091c.333.019.652.121.957.307.308.183.56.443.755.778.195.336.293.742.293 1.218 0 .485-.117.922-.352 1.309-.235.385-.589.688-1.062.911-.473.223-1.069.334-1.786.334h-3.795Zm1.699-1.419h1.826c.617 0 1.061-.117 1.332-.352.275-.238.412-.543.412-.916a1.397 1.397 0 0 0-.792-1.282c-.253-.131-.555-.196-.906-.196h-1.872v2.746Zm0-3.969h1.68c.293 0 .557-.053.792-.16.235-.11.419-.264.554-.462.137-.202.206-.44.206-.714 0-.364-.129-.663-.385-.898-.253-.235-.63-.352-1.131-.352h-1.716v2.586Zm6.774 5.388v-9.375h6.097v1.424h-4.399v2.545h4.083v1.424h-4.083v2.559h4.436v1.423h-6.134Z"/>
  </g>
  <defs>
    <clipPath id="a">
      <path fill="#fff" d="M.906.818h504.07V729.24H.906z"/>
    </clipPath>
  </defs>
</svg>
